<svg width="320" height="157" viewBox="0 0 320 157" fill="none" xmlns="http://www.w3.org/2000/svg">
<g clip-path="url(#clip0_1654_1831)">
<rect width="320" height="157" fill="#FAFAFA"/>
<g clip-path="url(#clip1_1654_1831)">
<path d="M114.886 79.3247V72.2622H107.41V63.3611H100.462L99.2742 72.2622L94 73.6881V79.3247H98.979L98.6837 92.7988C98.6099 95.6003 98.9052 97.8415 99.5728 99.4989C100.247 101.163 101.344 102.351 102.871 103.059C104.394 103.777 106.38 104.129 108.836 104.129H114.59V97.6033L110.551 97.2477C110.155 97.2074 109.759 97.1068 109.363 96.9524C108.967 96.788 108.622 96.5397 108.323 96.2109C108.028 95.8721 107.803 95.4292 107.649 94.8756C107.484 94.3153 107.41 93.6074 107.41 92.7317V79.3213H114.886V79.3247Z" fill="#2E2E2E"/>
<path d="M145.373 80.1232C144.836 78.0129 143.988 76.3487 142.82 75.1442C141.649 73.933 140.143 73.0741 138.277 72.5574C136.422 72.0475 134.164 71.7925 131.51 71.7925C128.856 71.7925 126.712 72.0408 124.833 72.534C122.954 73.0272 121.438 73.876 120.267 75.0805C119.096 76.2917 118.247 77.9491 117.714 80.0662C117.187 82.1832 116.915 84.864 116.915 88.1084C116.915 91.3528 117.187 93.7852 117.714 95.8788C118.251 97.9724 119.099 99.6533 120.267 100.922C121.438 102.19 122.944 103.089 124.81 103.626C126.665 104.152 128.906 104.424 131.51 104.424C134.114 104.424 136.489 104.159 138.368 103.649C140.247 103.139 141.763 102.264 142.911 101.036C144.055 99.8143 144.89 98.1435 145.4 96.0231C145.92 93.906 146.175 91.2689 146.175 88.1017C146.175 84.9344 145.903 82.2336 145.377 80.1165L145.373 80.1232ZM137.033 93.0941C136.794 94.3556 136.449 95.295 135.992 95.9123C135.539 96.523 134.946 96.9256 134.211 97.1235C133.476 97.3215 132.58 97.4188 131.507 97.4188C130.433 97.4188 129.604 97.3215 128.87 97.1235C128.135 96.9256 127.534 96.523 127.058 95.9123C126.588 95.295 126.242 94.3556 126.018 93.0941C125.803 91.8258 125.696 90.1617 125.696 88.1084C125.696 86.055 125.803 84.3406 126.018 83.0891C126.239 81.8444 126.585 80.915 127.058 80.3044C127.534 79.6938 128.138 79.2811 128.87 79.0831C129.604 78.8852 130.483 78.7879 131.507 78.7879C132.53 78.7879 133.476 78.8852 134.211 79.0831C134.946 79.2811 135.536 79.6938 135.992 80.3044C136.445 80.915 136.791 81.8444 137.033 83.0891C137.271 84.3406 137.388 86.0081 137.388 88.1084C137.388 90.2087 137.274 91.8258 137.033 93.0941Z" fill="#2E2E2E"/>
<path d="M190.07 72.2623H182.592L181.672 71.7859H174.731L174.466 72.2623H161.616L160.696 71.7859H153.754L153.489 72.2623L148.208 72.1315V79.3215H153.194L152.899 92.7922C152.818 95.6004 153.117 97.8349 153.788 99.4957C154.459 101.156 155.56 102.344 157.083 103.055C158.606 103.767 160.592 104.122 163.045 104.122H168.802V97.5967L164.766 97.2411C164.37 97.2008 163.974 97.1035 163.578 96.9458C163.182 96.7882 162.837 96.5399 162.542 96.2044C162.243 95.8689 162.018 95.4226 161.86 94.869C161.703 94.3154 161.622 93.6042 161.622 92.7318V79.3215H174.174L173.878 92.7922C173.798 95.6004 174.097 97.8349 174.768 99.4957C175.439 101.156 176.539 102.344 178.062 103.055C179.585 103.767 181.572 104.122 184.024 104.122H189.782V97.5967L185.745 97.2411C185.35 97.2008 184.954 97.1035 184.558 96.9458C184.162 96.7882 183.816 96.5399 183.521 96.2044C183.222 95.8689 182.998 95.4226 182.84 94.869C182.682 94.3154 182.602 93.6042 182.602 92.7318V79.3215H194.727V72.259H190.077L190.07 72.2623Z" fill="#2E2E2E"/>
<path d="M225.198 80.1232C224.661 78.0129 223.812 76.3487 222.652 75.1442C221.481 73.933 219.964 73.0741 218.109 72.5574C216.247 72.0475 213.989 71.7925 211.341 71.7925C208.694 71.7925 206.544 72.0408 204.665 72.534C202.786 73.0272 201.259 73.876 200.099 75.0805C198.928 76.2917 198.079 77.9491 197.542 80.0662C197.005 82.1832 196.743 84.864 196.743 88.1084C196.743 91.3528 197.008 93.7852 197.542 95.8788C198.079 97.9724 198.928 99.6533 200.099 100.922C201.259 102.19 202.776 103.089 204.631 103.626C206.493 104.152 208.728 104.424 211.341 104.424C213.955 104.424 216.31 104.159 218.199 103.649C220.071 103.139 221.588 102.264 222.732 101.036C223.876 99.8143 224.712 98.1435 225.228 96.0231C225.738 93.906 225.993 91.2689 225.993 88.1017C225.993 84.9344 225.728 82.2336 225.195 80.1165L225.198 80.1232ZM216.867 93.0941C216.629 94.3556 216.284 95.295 215.827 95.9123C215.364 96.523 214.774 96.9256 214.046 97.1235C213.311 97.3215 212.415 97.4188 211.341 97.4188C210.268 97.4188 209.429 97.3215 208.704 97.1235C207.97 96.9256 207.369 96.523 206.893 95.9123C206.416 95.295 206.067 94.3556 205.853 93.0941C205.638 91.8258 205.524 90.1617 205.524 88.1084C205.524 86.055 205.638 84.3406 205.853 83.0891C206.067 81.8444 206.413 80.915 206.893 80.3044C207.369 79.6938 207.973 79.2811 208.704 79.0831C209.429 78.8852 210.311 78.7879 211.341 78.7879C212.371 78.7879 213.311 78.8852 214.046 79.0831C214.77 79.2811 215.364 79.6938 215.827 80.3044C216.28 80.915 216.626 81.8444 216.867 83.0891C217.099 84.3406 217.223 86.0081 217.223 88.1084C217.223 90.2087 217.099 91.8258 216.867 93.0941Z" fill="#2E2E2E"/>
<path d="M157.499 56C154.335 56 151.771 58.57 151.771 61.7205C151.771 64.8709 154.335 67.4476 157.499 67.4476C160.663 67.4476 163.219 64.8776 163.219 61.7205C163.219 58.5633 160.646 56 157.499 56ZM157.499 63.7235C156.395 63.7235 155.496 62.8243 155.496 61.7205C155.496 60.6166 156.395 59.7275 157.499 59.7275C158.602 59.7275 159.492 60.6267 159.492 61.7205C159.492 62.8142 158.592 63.7235 157.499 63.7235Z" fill="#DC143C"/>
<path d="M159.492 61.7204C159.492 62.8242 158.592 63.7234 157.495 63.7234C156.398 63.7234 155.499 62.8242 155.499 61.7204C155.499 60.6166 156.391 59.7241 157.495 59.7241C158.599 59.7241 159.492 60.6233 159.492 61.7204Z" fill="#DC143C"/>
<path d="M178.086 56C175.059 56 172.597 58.4626 172.597 61.489C172.597 64.5153 175.059 66.9779 178.086 66.9779C181.112 66.9779 183.575 64.5153 183.575 61.489C183.575 58.4626 181.109 56 178.086 56ZM178.086 63.4081C177.032 63.4081 176.167 62.5425 176.167 61.489C176.167 60.4355 177.032 59.5698 178.086 59.5698C179.139 59.5698 180.005 60.4355 180.005 61.489C180.005 62.5425 179.139 63.4081 178.086 63.4081Z" fill="#DC143C"/>
<path d="M180.005 61.489C180.005 62.5492 179.142 63.4115 178.089 63.4115C177.035 63.4115 176.167 62.5492 176.167 61.489C176.167 60.4288 177.029 59.5732 178.089 59.5732C179.149 59.5732 180.005 60.4355 180.005 61.489Z" fill="#DC143C"/>
</g>
</g>
<defs>
<clipPath id="clip0_1654_1831">
<rect width="320" height="157" fill="white"/>
</clipPath>
<clipPath id="clip1_1654_1831">
<rect width="132" height="48.4276" fill="white" transform="translate(94 56)"/>
</clipPath>
</defs>
</svg>
